# xmcd CD database file
# Copyright (C) 1993-1998 Ti Kan
#
# Track frame offsets:
#	150
#	12665
#	24902
#	38240
#	51932
#	64652
#	75402
#	88150
#	99425
#	111152
#	123490
#	134830
#	145212
#	156970
#	167737
#	179270
#	188815
#	200257
#	212337
#	224267
#
# Disc length: 3119 seconds
#
# Revision: 2
# Processed by: cddbd v1.4b41PL1 Copyright (c) Steve Scherf et al.
# Submitted via: NotifyCDPlayer(CDDB) 1.51.3
#
DISCID=1b0c2d14
DTITLE=Carl Smith - The Essential Carl Smith (1950-1956)
DYEAR=1900
DGENRE=
TTITLE0=Guilty Conscience
TTITLE1=I Just Dropped In To Say Goodbye
TTITLE2=I Overlooked An Orchid
TTITLE3=If Teardrops Were Pennies
TTITLE4=Let's Live A Little
TTITLE5=When You Feel Like You're In Love Don't Just Stand There
TTITLE6=Let Old Mother Nature Have Her Way
TTITLE7=It's A Lovely World
TTITLE8=Are You Teasing Me
TTITLE9=This Orchid Means Goodbye
TTITLE10=Hey Joe
TTITLE11=Trademark
TTITLE12=Just Wait Till I Get You Alone
TTITLE13=Dog-gone It Baby, I'm In Love
TTITLE14=Back Up Buddy
TTITLE15=Go Boy Go
TTITLE16=Loose Talk
TTITLE17=Kisses Don't Lie
TTITLE18=There She Goes
TTITLE19=You Are The One
EXTD=
EXTT0=
EXTT1=
EXTT2=
EXTT3=
EXTT4=
EXTT5=
EXTT6=
EXTT7=
EXTT8=
EXTT9=
EXTT10=
EXTT11=
EXTT12=
EXTT13=
EXTT14=
EXTT15=
EXTT16=
EXTT17=
EXTT18=
EXTT19=
PLAYORDER=
